# xmcd
# Track frame offsets:
# 150
# 10817
# 28470
# 43500
# 59570
# 71375
# 95905
# 116605
# 130995
# 153512
# 165632
# 185162
# 196262
# 213025
# 231197
# 243725
# 260880
#
# Disc length: 3658 seconds
# Revision: 2
# Processed by: cddbd v1.4PL0 Copyright (c) Steve Scherf et al.
# Submitted via: VisiTrax 2.9.6.190 - For more info visit www.synapsa.com
#
DISCID=000e4811
DTITLE=Champion Jack Dupree - Champion Jack Dupree - Blue Masters Vol. 6
DYEAR=1991
DGENRE=Blues
TTITLE0=Cabbage Greens No. 3
TTITLE1=Sporting Life Blues
TTITLE2=Mean Mistreater
TTITLE3=In The Dark
TTITLE4=You've Been Drunk
TTITLE5=Careless Love
TTITLE6=Tomorrow Night
TTITLE7=Fisherman's Blues
TTITLE8=Bring Me Flowers While I'm Living
TTITLE9=Everything I Do Is Wrong
TTITLE10=See See Rider
TTITLE11=Diggin' My Potatoes
TTITLE12=Please Send Me Someone To Love
TTITLE13=In The Evening
TTITLE14=Rock Me Mama
TTITLE15=I'll Bet My Money
TTITLE16=Going To Copenhagen
EXTD=Storyville, STCD 8006
EXTT0=
EXTT1=
EXTT2=
EXTT3=
EXTT4=
EXTT5=
EXTT6=
EXTT7=
EXTT8=
EXTT9=
EXTT10=
EXTT11=
EXTT12=
EXTT13=
EXTT14=
EXTT15=
EXTT16=
PLAYORDER=
